HIERARCHY
ROOT Hips
{
	OFFSET 0.000000 0.000000 0.000000
	CHANNELS 6 Xposition Yposition Zposition Zrotation Yrotation Xrotation 
	JOINT LHipJoint
	{
		OFFSET 0.000000 0.000000 0.000000
		CHANNELS 3 Zrotation Yrotation Xrotation
		JOINT LeftUpLeg
		{
			OFFSET 1.363060 -1.794630 0.839290
			CHANNELS 3 Zrotation Yrotation Xrotation
			JOINT LeftLeg
			{
				OFFSET 2.448110 -6.726130 0.000000
				CHANNELS 3 Zrotation Yrotation Xrotation
				JOINT LeftFoot
				{
					OFFSET 2.562200 -7.039590 0.000000
					CHANNELS 3 Zrotation Yrotation Xrotation
					JOINT LeftToeBase
					{
						OFFSET 0.157640 -0.433110 2.322550
						CHANNELS 3 Zrotation Yrotation Xrotation
						End Site
						{
							OFFSET 0.000000 0.000000 0.000000
						}
					}
				}
			}
		}
	}
	JOINT RHipJoint
	{
		OFFSET 0.000000 0.000000 0.000000
		CHANNELS 3 Zrotation Yrotation Xrotation
		JOINT RightUpLeg
		{
			OFFSET -1.305520 -1.794630 0.839290
			CHANNELS 3 Zrotation Yrotation Xrotation
			JOINT RightLeg
			{
				OFFSET -2.542530 -6.985550 0.000000
				CHANNELS 3 Zrotation Yrotation Xrotation
				JOINT RightFoot
				{
					OFFSET -2.568260 -7.056230 0.000000
					CHANNELS 3 Zrotation Yrotation Xrotation
					JOINT RightToeBase
					{
						OFFSET -0.164730 -0.452590 2.363150
						CHANNELS 3 Zrotation Yrotation Xrotation
						End Site
						{
							OFFSET 0.000000 0.000000 0.000000
						}
					}
				}
			}
		}
	}
	JOINT LowerBack
	{
		OFFSET 0.000000 0.000000 0.000000
		CHANNELS 3 Zrotation Yrotation Xrotation
		JOINT Spine
		{
			OFFSET 0.028270 2.035590 -0.193380
			CHANNELS 3 Zrotation Yrotation Xrotation
			JOINT Spine1
			{
				OFFSET 0.056720 2.048850 -0.042750
				CHANNELS 3 Zrotation Yrotation Xrotation
				JOINT Neck
				{
					OFFSET 0.000000 0.000000 0.000000
					CHANNELS 3 Zrotation Yrotation Xrotation
					JOINT Neck1
					{
						OFFSET -0.054170 1.746240 0.172020
						CHANNELS 3 Zrotation Yrotation Xrotation
						JOINT Head
						{
							OFFSET 0.104070 1.761360 -0.123970
							CHANNELS 3 Zrotation Yrotation Xrotation
							End Site
							{
								OFFSET 0.000000 0.000000 0.000000
							}
						}
					}
				}
				JOINT LeftShoulder
				{
					OFFSET 0.000000 0.000000 0.000000
					CHANNELS 3 Zrotation Yrotation Xrotation
					JOINT LeftArm
					{
						OFFSET 3.362410 1.200890 -0.311210
						CHANNELS 3 Zrotation Yrotation Xrotation
						JOINT LeftForeArm
						{
							OFFSET 4.983000 -0.000000 -0.000000
							CHANNELS 3 Zrotation Yrotation Xrotation
							JOINT LeftHand
							{
								OFFSET 3.483560 -0.000000 -0.000000
								CHANNELS 3 Zrotation Yrotation Xrotation
								JOINT LeftFingerBase
								{
									OFFSET 0.000000 0.000000 0.000000
									CHANNELS 3 Zrotation Yrotation Xrotation
									JOINT LeftHandIndex1
									{
										OFFSET 0.715260 -0.000000 -0.000000
										CHANNELS 3 Zrotation Yrotation Xrotation
										End Site
										{
											OFFSET 0.000000 0.000000 0.000000
										}
									}
								}
								JOINT LThumb
								{
									OFFSET 0.000000 0.000000 0.000000
									CHANNELS 3 Zrotation Yrotation Xrotation
									End Site
									{
										OFFSET 0.000000 0.000000 0.000000
									}
								}
							}
						}
					}
				}
				JOINT RightShoulder
				{
					OFFSET 0.000000 0.000000 0.000000
					CHANNELS 3 Zrotation Yrotation Xrotation
					JOINT RightArm
					{
						OFFSET -3.136600 1.374050 -0.404650
						CHANNELS 3 Zrotation Yrotation Xrotation
						JOINT RightForeArm
						{
							OFFSET -5.241900 -0.000000 -0.000000
							CHANNELS 3 Zrotation Yrotation Xrotation
							JOINT RightHand
							{
								OFFSET -3.444170 -0.000000 -0.000000
								CHANNELS 3 Zrotation Yrotation Xrotation
								JOINT RightFingerBase
								{
									OFFSET 0.000000 0.000000 0.000000
									CHANNELS 3 Zrotation Yrotation Xrotation
									JOINT RightHandIndex1
									{
										OFFSET -0.622530 -0.000000 -0.000000
										CHANNELS 3 Zrotation Yrotation Xrotation
										End Site
										{
											OFFSET 0.000000 0.000000 0.000000
										}
									}
								}
								JOINT RThumb
								{
									OFFSET 0.000000 0.000000 0.000000
									CHANNELS 3 Zrotation Yrotation Xrotation
									End Site
									{
										OFFSET 0.000000 0.000000 0.000000
									}
								}
							}
						}
					}
				}
			}
		}
	}
}
MOTION
Frames: 8
Frame Time: 0.008333
1.131160 17.421230 1.064919 -179.534219 -63.362638 -168.630759 -11.500605 2.184057 -2.043095 -5.936076 25.177643 -15.650859 -1.787944 -0.081615 10.054421 3.639143 25.476072 0.637171 4.223700 -0.000001 -38.931500 9.437855 -1.071195 3.036566 2.872921 3.001326 -18.325333 2.645552 0.607247 4.458555 0.928692 4.811425 7.636632 0.652500 0.000000 -70.219999 0.954364 -3.284856 -1.926407 -0.540950 -3.380646 -3.687366 -6.961005 -3.164038 -3.837333 9.148437 -9.187943 2.527958 -3.004759 -0.355250 2.812931 0.000000 0.000000 0.000000 19.038302 -2.361665 -5.443830 -63.751484 -52.959612 -9.118112 176.365032 -56.916527 179.649658 17.661709 -12.215138 -2.143859 -0.207896 1.347288 -0.000000 0.000000 0.000000 0.000000 0.000000 0.000000 0.000000 2.367090 -9.776737 -4.306590 88.498137 37.426756 27.027503 -176.902904 62.489215 179.678740 -22.339050 15.412770 -3.327050 0.286766 -1.094014 -0.000000 0.000000 0.000000 0.000000 0.000000 0.000000 0.000000 
1.132088 17.416429 1.091494 -179.540853 -64.047172 -168.539385 -11.481569 2.150816 -1.996415 -6.124526 24.827008 -15.958850 -1.795079 -0.087323 10.150511 3.656218 25.401200 0.253945 4.050700 0.000000 -38.351000 9.443516 -1.038684 2.924345 2.862535 2.599934 -18.430833 2.625604 0.600451 4.673899 0.877613 4.459564 7.420118 0.548600 -0.000000 -70.325899 1.080006 -3.298761 -1.804283 -0.525016 -3.402546 -3.666832 -6.996635 -3.184776 -3.843595 9.236515 -9.158169 2.436570 -3.016552 -0.354480 2.785986 0.000000 0.000000 0.000000 18.972695 -2.411164 -5.456501 -64.025074 -53.406189 -8.750729 176.412828 -57.312502 179.649241 17.667019 -12.254213 -2.150594 -0.206220 1.348182 -0.000000 0.000000 0.000000 0.000000 0.000000 0.000000 0.000000 2.589534 -9.690452 -4.152075 88.135903 36.755721 26.906742 -177.006023 62.878112 179.683594 -22.109247 15.430072 -3.293756 0.281125 -1.087475 -0.000000 0.000000 0.000000 0.000000 0.000000 0.000000 0.000000 
1.131844 17.411362 1.118742 -179.546901 -64.824021 -168.434810 -11.462094 2.118403 -1.930342 -6.319631 24.407582 -16.285228 -1.799889 -0.096160 10.226071 3.672944 25.311015 -0.134523 3.875100 -0.000000 -37.745100 9.447749 -1.006237 2.808576 2.856727 2.169521 -18.538475 2.603278 0.595384 4.903149 0.816964 4.043793 7.171200 0.428400 0.000000 -70.361300 1.226518 -3.314814 -1.697311 -0.504935 -3.428705 -3.646683 -7.031783 -3.209912 -3.837358 9.333887 -9.154123 2.323197 -3.032936 -0.353674 2.753093 0.000000 0.000000 0.000000 18.889055 -2.441906 -5.473012 -64.360016 -53.911532 -8.306878 176.469513 -57.741148 179.649152 17.649307 -12.302026 -2.155918 -0.203878 1.349406 -0.000000 0.000000 0.000000 0.000000 0.000000 0.000000 0.000000 2.858284 -9.630458 -3.989182 87.739164 36.056760 26.773226 -177.124935 63.344788 179.688889 -21.865624 15.476901 -3.264152 0.275089 -1.080513 -0.000000 0.000000 0.000000 0.000000 0.000000 0.000000 0.000000 
1.130241 17.406007 1.146518 -179.559221 -65.705241 -168.314215 -11.442598 2.088725 -1.844092 -6.516934 23.920676 -16.622499 -1.803490 -0.108032 10.275184 3.684944 25.181631 -0.518975 3.696600 0.000001 -37.141400 9.451294 -0.973970 2.687572 2.854223 1.699298 -18.634282 2.578661 0.593489 5.132248 0.745833 3.560952 6.889908 0.292100 0.000001 -70.325701 1.395253 -3.334371 -1.605595 -0.480858 -3.460606 -3.626426 -7.069211 -3.240923 -3.816473 9.445635 -9.173509 2.187160 -3.054591 -0.352855 2.714053 0.000000 0.000000 0.000000 18.776776 -2.449452 -5.492091 -64.745471 -54.492484 -7.785469 176.538957 -58.216066 179.649615 17.598129 -12.354054 -2.157726 -0.200664 1.350767 -0.000000 0.000000 0.000000 0.000000 0.000000 0.000000 0.000000 3.181758 -9.597676 -3.817775 87.295883 35.317867 26.608367 -177.256518 63.880408 179.694405 -21.637004 15.550215 -3.241839 0.269511 -1.072942 -0.000000 0.000000 0.000000 0.000000 0.000000 0.000000 0.000000 
1.126668 17.400382 1.174704 -179.575565 -66.708612 -168.173363 -11.423752 2.063458 -1.730715 -6.712060 23.352317 -16.977043 -1.806204 -0.123222 10.298472 3.689012 24.992461 -0.895280 3.514300 0.000000 -36.562900 9.453570 -0.943109 2.562467 2.858211 1.177522 -18.714015 2.552905 0.597368 5.343942 0.663044 3.004010 6.578272 0.139200 -0.000000 -70.220601 1.594430 -3.358218 -1.538779 -0.451564 -3.499933 -3.607839 -7.112156 -3.279581 -3.779956 9.571656 -9.207389 2.029930 -3.081148 -0.352019 2.669391 0.000000 0.000000 0.000000 18.622382 -2.431460 -5.511326 -65.170448 -55.162688 -7.182889 176.624775 -58.746910 179.650762 17.511576 -12.398672 -2.153716 -0.196744 1.351885 -0.000000 0.000000 0.000000 0.000000 0.000000 0.000000 0.000000 3.554604 -9.586102 -3.638272 86.799533 34.510315 26.387619 -177.394295 64.465745 179.699928 -21.448269 15.636991 -3.227913 0.265014 -1.064421 -0.000000 0.000000 0.000000 0.000000 0.000000 0.000000 0.000000 
1.121254 17.394507 1.203058 -179.614140 -67.844823 -168.005300 -11.405713 2.044832 -1.594319 -6.899130 22.719688 -17.333256 -1.810723 -0.141072 10.288954 3.677520 24.705795 -1.247499 3.328900 -0.000000 -36.057699 9.456652 -0.913424 2.429950 2.863269 0.591323 -18.756676 2.525485 0.607758 5.522887 0.567984 2.375162 6.238288 -0.028100 0.000001 -70.054301 1.820255 -3.386174 -1.490981 -0.418701 -3.546082 -3.590494 -7.165189 -3.325331 -3.731223 9.716491 -9.241397 1.856630 -3.113422 -0.351263 2.620420 0.000000 0.000000 0.000000 18.417258 -2.388238 -5.528289 -65.626956 -55.939077 -6.491845 176.728727 -59.344551 179.652621 17.389877 -12.436418 -2.144088 -0.192188 1.352729 -0.000000 0.000000 0.000000 0.000000 0.000000 0.000000 0.000000 3.983966 -9.582413 -3.451030 86.242507 33.610515 26.086434 -177.532683 65.078090 179.705192 -21.325072 15.733287 -3.225571 0.262212 -1.054938 -0.000000 0.000000 0.000000 0.000000 0.000000 0.000000 0.000000 
1.113800 17.388391 1.231276 -179.691999 -69.127782 -167.796387 -11.388575 2.034712 -1.435063 -7.075186 22.027753 -17.684970 -1.818977 -0.161284 10.244234 3.644478 24.291662 -1.563954 3.141700 -0.000000 -35.665400 9.461919 -0.885281 2.287942 2.865691 -0.074548 -18.748599 2.496583 0.625756 5.654232 0.460357 1.677562 5.873318 -0.207300 0.000001 -69.838400 2.071420 -3.417341 -1.461955 -0.383366 -3.598062 -3.575770 -7.232884 -3.377341 -3.676404 9.880287 -9.254997 1.674805 -3.151520 -0.350680 2.569201 0.000000 0.000000 0.000000 18.153633 -2.324120 -5.539523 -66.112943 -56.830669 -5.698911 176.851368 -60.017762 179.655066 17.243731 -12.464244 -2.129743 -0.187391 1.353166 -0.000000 0.000000 0.000000 0.000000 0.000000 0.000000 0.000000 4.466915 -9.565010 -3.256895 85.624630 32.582971 25.676745 -177.664571 65.689482 179.709977 -21.283216 15.830047 -3.235711 0.261293 -1.044467 -0.000000 0.000000 0.000000 0.000000 0.000000 0.000000 0.000000 
1.103764 17.382080 1.259185 -179.812390 -70.575553 -167.534331 -11.372663 2.033933 -1.245649 -7.235819 21.264796 -18.048735 -1.831827 -0.183767 10.173096 3.586246 23.728339 -1.840597 2.953400 -0.000000 -35.414600 9.468460 -0.860597 2.138993 2.871665 -0.831448 -18.691704 2.467944 0.653857 5.719901 0.339498 0.907414 5.492010 -0.397900 0.000000 -69.581401 2.357880 -3.449181 -1.464267 -0.344145 -3.654421 -3.568383 -7.318432 -3.434524 -3.624208 10.053853 -9.220951 1.494404 -3.194186 -0.350323 2.518650 0.000000 0.000000 0.000000 17.821141 -2.246671 -5.540034 -66.634644 -57.836789 -4.781459 176.993030 -60.771429 179.657865 17.091731 -12.476154 -2.111977 -0.183047 1.353023 -0.000000 0.000000 0.000000 0.000000 0.000000 0.000000 0.000000 4.982042 -9.502179 -3.058063 84.957195 31.377478 25.125750 -177.781264 66.272109 179.714148 -21.321851 15.910087 -3.254833 0.261733 -1.032841 -0.000000 0.000000 0.000000 0.000000 0.000000 0.000000 0.000000 
